<svg viewBox="0 0 447 199" fill="none" xmlns="http://www.w3.org/2000/svg">
<path d="M3.88042 30.4478C3.88042 21.9742 3.70554 16.2417 3.88043 7.84635C2.21621 7.04744 2.14447 4.79282 1.03606 3.46261C0.725019 3.08932 2.51678 3.27165 3.05706 3.17515C4.63913 2.89256 5.99744 2.6721 7.62302 2.6721C21.8094 2.6721 35.9667 3.1974 50.1388 3.31889C82.8934 3.59967 115.663 3.3189 148.419 3.3189C182.31 3.31891 216.178 5.90604 250.068 5.90605C267.46 5.90605 285.115 5.91699 302.464 7.05589C311.906 7.67571 321.522 7.19962 330.983 7.19962C339.923 7.19962 349.063 7.78642 357.892 6.22945C365.506 4.88673 374.085 3.64999 381.807 4.28912C391.703 5.10818 401 2.96272 410.812 2.7081C415.611 2.58359 420.421 2.67217 425.221 2.67217C430.366 2.67217 437.283 -0.210619 442.1 1.59421C444.506 2.49549 443.771 10.0403 444.121 12.1224C446.065 23.6947 444.458 36.6687 444.458 48.3421L444.458 94.2276L444.458 141.299C444.458 152.4 445.805 163.301 445.805 174.393C445.805 179.343 447.005 186.351 443.447 190.526C440.365 194.143 432.498 192.919 428.14 192.826C423.635 192.73 419.246 191.705 414.667 192.323C408.044 193.217 401.863 193.416 395.131 193.473C378.583 193.611 362.01 194.119 345.429 194.119C336.259 194.119 327.107 194.766 317.958 194.766C306.914 194.766 295.897 193.473 284.799 193.473C258.504 193.473 232.579 196.706 206.28 196.706C185.451 196.706 164.69 198 143.853 198L96.8463 198C69.1858 198 41.7166 196.706 14.0602 196.706C8.12972 196.706 9.15363 195.183 9.90596 190.849C10.8124 185.628 11.9644 180.666 11.9644 175.291C11.9644 165.069 10.2597 155.571 8.89547 145.467C7.31397 133.754 4.55407 122.171 4.55407 110.325L4.55408 80.6811L4.55409 43.4552C4.55409 39.0467 3.88042 34.7777 3.88042 30.4478Z" stroke="#465771" stroke-linecap="round" stroke-linejoin="round"/>
</svg>
