<svg width="343" height="55" viewBox="0 0 343 55" fill="none" xmlns="http://www.w3.org/2000/svg">
<path d="M1.47697 52.9798C0.815403 35.7791 2.71545 18.4645 2.71545 1.23856C16.6731 1.23856 26.5881 2.47704 40.5581 2.47704C61.2074 2.47704 81.6554 3.71553 102.345 3.71553H238.166C262.328 3.71553 286.344 4.95402 310.548 4.95402C319.592 4.95402 329.923 3.4164 338.758 5.02282C340.357 5.3135 339.584 11.6176 339.584 13.0042C339.584 23.8138 340.822 34.8501 340.822 45.8241C340.822 46.6628 342.115 50.2005 341.51 50.5028C338.772 51.8722 333.291 50.778 330.295 50.778H316.053C258.686 50.778 201.261 49.9702 143.903 50.778C111.701 51.2316 79.1559 50.778 46.7506 50.778C41.2522 50.778 35.734 50.6531 30.2374 50.778C24.7556 50.9026 19.663 53.255 14.1371 53.255C11.7623 53.255 1.58009 55.661 1.47697 52.9798Z" stroke="white" stroke-linecap="round" stroke-linejoin="round"/>
</svg>
