<svg width="18" height="18" viewBox="0 0 18 18" fill="none" xmlns="http://www.w3.org/2000/svg">
<path d="M16.6124 0.393951H1.08464C0.829133 0.393951 0.58409 0.495452 0.403418 0.676123C0.222747 0.856795 0.121246 1.10184 0.121246 1.35735V16.8854C0.121311 17.1408 0.222839 17.3858 0.403504 17.5664C0.584168 17.747 0.829175 17.8485 1.08464 17.8485H9.44416V11.0892H7.16949V8.45505H9.44416V6.51226C9.44416 4.25771 10.8211 3.03032 12.8323 3.03032C13.7957 3.03032 14.6236 3.10183 14.865 3.13407V5.4902L13.4701 5.49093C12.3763 5.49093 12.1646 6.01068 12.1646 6.77335V8.45529H14.7731L14.4335 11.0895H12.1646V17.8485H16.6127C16.8681 17.8484 17.1131 17.7469 17.2937 17.5663C17.4743 17.3856 17.5758 17.1406 17.5758 16.8851V1.35735C17.5758 1.10184 17.4743 0.856795 17.2936 0.676123C17.113 0.495452 16.8679 0.393951 16.6124 0.393951Z" fill="#6B66BA"/>
</svg>
