<svg width="20" height="19" viewBox="0 0 20 19" fill="none" xmlns="http://www.w3.org/2000/svg">
<path fill-rule="evenodd" clip-rule="evenodd" d="M10.2117 0.424255C4.99057 0.424255 0.757599 4.65747 0.757599 9.87928C0.757599 14.0565 3.46596 17.6003 7.2233 18.8497C7.69651 18.9372 7.86863 18.6461 7.86863 18.3947C7.86863 18.1707 7.86039 17.5765 7.85626 16.7867C5.2262 17.3586 4.67129 15.519 4.67129 15.519C4.24123 14.4269 3.62136 14.1365 3.62136 14.1365C2.76293 13.5503 3.68657 13.5617 3.68657 13.5617C4.63542 13.6289 5.13481 14.5358 5.13481 14.5358C5.97796 15.9806 7.3479 15.5624 7.88632 15.3219C7.9719 14.7098 8.21675 14.2941 8.48657 14.0572C6.38742 13.8187 4.18039 13.0075 4.18039 9.38474C4.18039 8.35225 4.54863 7.50813 5.15323 6.84704C5.05651 6.60898 4.73142 5.64777 5.24608 4.34547C5.24608 4.34547 6.03978 4.09141 7.84633 5.3154C8.60002 5.10474 9.40899 4.99953 10.2131 4.99638C11.016 4.99977 11.8252 5.10474 12.5799 5.3154C14.3852 4.09141 15.1777 4.34547 15.1777 4.34547C15.6936 5.64777 15.3687 6.60898 15.2718 6.84704C15.8778 7.50813 16.2434 8.35225 16.2434 9.38474C16.2434 13.016 14.0332 13.816 11.9271 14.0492C12.266 14.3413 12.5685 14.9195 12.5685 15.8017C12.5685 17.065 12.5571 18.0844 12.5571 18.3944C12.5571 18.6478 12.7271 18.9423 13.2071 18.8485C16.9603 17.5964 19.6667 14.0553 19.6667 9.87928C19.6667 4.65747 15.4337 0.424255 10.2117 0.424255Z" fill="#6B66BA"/>
</svg>
