<svg width="19" height="18" viewBox="0 0 19 18" fill="none" xmlns="http://www.w3.org/2000/svg">
<path d="M15.394 0.393951H3.7576C2.10912 0.393951 0.848511 1.65456 0.848511 3.30304V14.9394C0.848511 16.5879 2.10912 17.8485 3.7576 17.8485H15.394C17.0424 17.8485 18.3031 16.5879 18.3031 14.9394V3.30304C18.3031 1.65456 17.0424 0.393951 15.394 0.393951ZM9.57578 6.21214C11.2243 6.21214 12.4849 7.47274 12.4849 9.12123C12.4849 10.7697 11.2243 12.0303 9.57578 12.0303C7.9273 12.0303 6.66669 10.7697 6.66669 9.12123C6.66669 7.47274 7.9273 6.21214 9.57578 6.21214ZM13.2606 4.27274C13.2606 3.59395 13.8424 3.10911 14.4243 3.10911C15.0061 3.10911 15.5879 3.69092 15.5879 4.27274C15.5879 4.85456 15.1031 5.43638 14.4243 5.43638C13.7455 5.43638 13.2606 4.95153 13.2606 4.27274ZM15.394 15.9091H3.7576C3.17578 15.9091 2.7879 15.5212 2.7879 14.9394V9.12123H4.7273C4.7273 11.8364 6.86063 13.9697 9.57578 13.9697C12.2909 13.9697 14.4243 11.8364 14.4243 9.12123H16.3637V14.9394C16.3637 15.5212 15.9758 15.9091 15.394 15.9091Z" fill="#6B66BA"/>
</svg>
