<svg width="18" height="18" viewBox="0 0 18 18" fill="none" xmlns="http://www.w3.org/2000/svg">
<path d="M16.6466 0.393951H1.77341C1.06214 0.393951 0.484924 0.957588 0.484924 1.65165V16.5891C0.484924 17.2841 1.06214 17.8485 1.77341 17.8485H16.6466C17.3584 17.8485 17.9395 17.2841 17.9395 16.5891V1.65165C17.9395 0.957588 17.3584 0.393951 16.6466 0.393951ZM5.66165 15.2677H3.07159V6.9382H5.66165V15.2677ZM4.36662 5.79929C4.16947 5.79929 3.97426 5.76044 3.79214 5.68497C3.61001 5.6095 3.44454 5.49888 3.30519 5.35943C3.16583 5.21998 3.05532 5.05444 2.97996 4.87227C2.90461 4.69009 2.86589 4.49486 2.86601 4.29771C2.86601 3.89976 3.0241 3.5181 3.30549 3.23671C3.58689 2.95531 3.96854 2.79723 4.3665 2.79723C4.76445 2.79723 5.1461 2.95531 5.4275 3.23671C5.70889 3.5181 5.86698 3.89976 5.86698 4.29771C5.86698 4.69574 5.70895 5.07749 5.42761 5.35906C5.14627 5.64062 4.76465 5.79897 4.36662 5.79929ZM15.3576 15.2677H12.7717V11.2172C12.7717 10.2509 12.7528 9.0085 11.426 9.0085C10.0786 9.0085 9.87328 10.0609 9.87328 11.1472V15.2679H7.2854V6.9382H9.76904V8.07565H9.80443C10.1501 7.42111 10.9947 6.73044 12.2544 6.73044C14.874 6.73044 15.3579 8.45505 15.3579 10.6987V15.2677H15.3576Z" fill="#6B66BA"/>
</svg>
